<svg xmlns="http://www.w3.org/2000/svg" viewBox="0 0 500 500"><g id="freepik--background-simple--inject-100"><path d="M449,142.6S382.34,62.84,279,44.53,155.48,104,120.83,149.79,47,212.55,45,278.58s24.85,100,76.49,123.57,104.61,36,156.26,43.15,92.83,3.26,113.1-39.23S402,344,425.49,323.69,502,211.24,449,142.6Z" style="fill:#FFC100"></path><path d="M449,142.6S382.34,62.84,279,44.53,155.48,104,120.83,149.79,47,212.55,45,278.58s24.85,100,76.49,123.57,104.61,36,156.26,43.15,92.83,3.26,113.1-39.23S402,344,425.49,323.69,502,211.24,449,142.6Z" style="fill:#fff;opacity:0.7000000000000001"></path></g><g id="freepik--origami-bird-4--inject-100"><polygon points="293.08 362 286.48 315.85 318.3 319.58 438.97 414.46 369.04 422.2 293.08 362" style="fill:#FFC100"></polygon><path d="M369,422.7a.52.52,0,0,1-.32-.11l-76-60.2a.51.51,0,0,1-.19-.32L286,315.92a.49.49,0,0,1,.14-.41.46.46,0,0,1,.41-.15l31.82,3.72a.47.47,0,0,1,.25.11l120.67,94.87a.5.5,0,0,1,.17.53.48.48,0,0,1-.42.36l-69.94,7.74Zm-75.5-61,75.64,59.95,68.52-7.59-119.6-94-31-3.63Z" style="fill:#263238"></path><polygon points="293.08 362 357 357.99 331.2 392.1 293.08 362" style="fill:#fff"></polygon><path d="M331.2,392.6a.51.51,0,0,1-.31-.11l-38.12-30.1a.48.48,0,0,1-.17-.54.52.52,0,0,1,.45-.35l63.91-4a.49.49,0,0,1,.43.8L331.6,392.4a.46.46,0,0,1-.34.19Zm-36.79-30.18,36.7,29,24.83-32.83Z" style="fill:#263238"></path><polygon points="357 357.99 352.7 305.25 308.56 361.14 357 357.99" style="fill:#FFC100"></polygon><path d="M308.55,361.64a.51.51,0,0,1-.44-.26.52.52,0,0,1,.05-.55l44.14-55.89a.51.51,0,0,1,.54-.17.48.48,0,0,1,.35.44l4.3,52.74a.51.51,0,0,1-.11.37.53.53,0,0,1-.35.17l-48.44,3.15Zm43.75-55.08-42.66,54,46.82-3.05Z" style="fill:#263238"></path><polygon points="352.7 305.25 369.04 422.2 331.2 392.1 357 357.99 352.7 305.25" style="fill:#fff"></polygon><path d="M369,422.7a.52.52,0,0,1-.32-.11l-37.83-30.1a.5.5,0,0,1-.09-.69l25.68-34-4.28-52.55a.5.5,0,0,1,.44-.54.51.51,0,0,1,.55.43l16.34,117a.49.49,0,0,1-.25.5A.51.51,0,0,1,369,422.7ZM331.89,392l36.48,29-13.76-98.47,2.88,35.4a.43.43,0,0,1-.1.34Z" style="fill:#263238"></path><polygon points="352.7 305.25 446.14 294.07 365.32 395.08 352.7 305.25" style="fill:#FFC100"></polygon><path d="M365.33,395.58l-.14,0a.51.51,0,0,1-.36-.41L352.2,305.32a.5.5,0,0,1,.44-.57l93.44-11.18a.49.49,0,0,1,.5.26.5.5,0,0,1-.05.55l-80.81,101A.52.52,0,0,1,365.33,395.58Zm-12.07-89.9,12.4,88.18L445,294.71Z" style="fill:#263238"></path><polygon points="286.48 315.85 280.24 338.46 289 334.4 286.48 315.85" style="fill:#fff"></polygon><path d="M280.23,339a.49.49,0,0,1-.32-.12.51.51,0,0,1-.16-.52l6.25-22.6a.5.5,0,0,1,.52-.36.49.49,0,0,1,.46.43l2.51,18.54a.49.49,0,0,1-.28.52l-8.77,4.06A.46.46,0,0,1,280.23,339Zm6.09-20.62L281,337.55l7.45-3.45Z" style="fill:#263238"></path><polygon points="352.7 305.25 367.72 390.92 365.32 395.08 352.7 305.25" style="fill:#263238"></polygon><path d="M365.33,395.58h-.1a.5.5,0,0,1-.4-.42L352.2,305.32a.5.5,0,0,1,1-.16l15,85.68a.48.48,0,0,1-.06.33l-2.4,4.16A.52.52,0,0,1,365.33,395.58Zm-8-61.25,8.33,59.24,1.58-2.74Z" style="fill:#263238"></path><polygon points="383.98 371.75 365.32 395.08 366.27 399.17 385.68 372.72 383.98 371.75" style="fill:#263238"></polygon><path d="M366.27,399.67h-.1a.48.48,0,0,1-.39-.37l-.94-4.1a.51.51,0,0,1,.09-.43l18.66-23.32a.49.49,0,0,1,.64-.12l1.7,1a.51.51,0,0,1,.24.33.52.52,0,0,1-.08.4l-19.42,26.45A.49.49,0,0,1,366.27,399.67Zm-.4-4.47.64,2.8L385,372.88l-.84-.48Z" style="fill:#263238"></path></g><g id="freepik--origami-bird-3--inject-100"><polygon points="351.63 187.3 341.36 213.18 372.99 239.87 351.63 187.3" style="fill:#263238"></polygon><path d="M373,240.37a.47.47,0,0,1-.32-.12L341,213.56a.49.49,0,0,1-.14-.57l10.26-25.88a.5.5,0,0,1,.47-.31h0a.49.49,0,0,1,.46.31l21.36,52.58a.49.49,0,0,1-.17.59A.52.52,0,0,1,373,240.37ZM342,213l29.8,25.16-20.13-49.54Z" style="fill:#263238"></path><polygon points="288.37 135.96 356.15 202.09 295.36 120.35 288.37 135.96" style="fill:#263238"></polygon><path d="M356.15,202.58a.46.46,0,0,1-.35-.14L288,136.31a.49.49,0,0,1-.11-.56l7-15.61a.51.51,0,0,1,.4-.29.51.51,0,0,1,.46.2l60.79,81.74a.51.51,0,0,1-.07.67A.54.54,0,0,1,356.15,202.58ZM289,135.84l63,61.48-56.52-76Z" style="fill:#263238"></path><polygon points="293.71 105.15 266.19 136.78 304.8 136.78 293.71 105.15" style="fill:#FFC100"></polygon><path d="M304.8,137.28H266.19a.5.5,0,0,1-.45-.3.49.49,0,0,1,.08-.53l27.52-31.63a.5.5,0,0,1,.47-.16.52.52,0,0,1,.38.32l11.09,31.63a.51.51,0,0,1-.07.46A.49.49,0,0,1,304.8,137.28Zm-37.51-1H304.1l-10.57-30.15Z" style="fill:#263238"></path><polygon points="296.18 131.85 367.65 216.05 365.59 139.65 296.18 131.85" style="fill:#FFC100"></polygon><path d="M367.65,216.55a.46.46,0,0,1-.38-.18l-71.47-84.2a.48.48,0,0,1-.06-.56.49.49,0,0,1,.49-.26l69.42,7.8a.5.5,0,0,1,.44.49l2.06,76.4a.53.53,0,0,1-.32.48Zm-70.27-84.06,69.73,82.15-2-74.54Z" style="fill:#263238"></path><polygon points="293.71 105.15 296.18 131.85 365.59 139.65 293.71 105.15" style="fill:#FFC100"></polygon><path d="M365.59,140.15h0l-69.42-7.81a.49.49,0,0,1-.44-.45l-2.46-26.69a.49.49,0,0,1,.21-.46.5.5,0,0,1,.5,0l71.88,34.5a.5.5,0,0,1,.26.59A.49.49,0,0,1,365.59,140.15Zm-68.95-8.75,66.08,7.43L294.29,106Z" style="fill:#263238"></path><polygon points="296.18 131.85 370.52 71.06 365.59 139.65 296.18 131.85" style="fill:#FFC100"></polygon><path d="M365.59,140.15h0l-69.42-7.81a.49.49,0,0,1-.42-.35.51.51,0,0,1,.16-.53l74.35-60.79a.49.49,0,0,1,.54-.06.49.49,0,0,1,.27.48l-4.93,68.6a.5.5,0,0,1-.18.35A.52.52,0,0,1,365.59,140.15Zm-68.18-8.67,67.72,7.62,4.81-66.92Z" style="fill:#263238"></path><polygon points="370.52 71.06 434.6 82.15 365.59 139.65 370.52 71.06" style="fill:#FFC100"></polygon><path d="M365.59,140.15a.59.59,0,0,1-.22-.05.51.51,0,0,1-.28-.48L370,71a.52.52,0,0,1,.19-.36.58.58,0,0,1,.4-.1l64.07,11.09a.51.51,0,0,1,.4.37.49.49,0,0,1-.16.51l-69,57.51A.52.52,0,0,1,365.59,140.15ZM371,71.64l-4.8,66.88,67.27-56.06Z" style="fill:#263238"></path><polygon points="365.59 139.65 351.63 209.07 372.99 239.87 365.59 139.65" style="fill:#FFC100"></polygon><path d="M373,240.37a.48.48,0,0,1-.41-.21l-21.36-30.81a.47.47,0,0,1-.08-.38l14-69.42a.5.5,0,0,1,.53-.4.51.51,0,0,1,.46.47l7.4,100.22a.5.5,0,0,1-.34.5A.45.45,0,0,1,373,240.37ZM352.16,209l20.19,29.12-7-94.75Z" style="fill:#263238"></path><polygon points="293.71 105.15 293.63 133.17 297 136.54 300.09 136.54 296.18 131.85 293.71 105.15" style="fill:#263238"></polygon><path d="M300.09,137H297a.52.52,0,0,1-.36-.14l-3.37-3.37a.54.54,0,0,1-.14-.36l.08-28a.5.5,0,0,1,1-.05l2.45,26.55,3.81,4.57a.51.51,0,0,1,.07.53A.49.49,0,0,1,300.09,137Zm-2.89-1H299l-3.23-3.87a.57.57,0,0,1-.11-.28l-1.5-16.24L294.13,133Z" style="fill:#263238"></path></g><g id="freepik--origami-bird-2--inject-100"><polygon points="182.17 161.24 86.75 85.96 128.16 153.72 182.17 161.24" style="fill:#263238"></polygon><path d="M182.17,161.73h-.07l-54-7.51a.5.5,0,0,1-.35-.24L86.33,86.22a.49.49,0,0,1,.09-.63.5.5,0,0,1,.64,0l95.42,75.27a.5.5,0,0,1,.15.59A.49.49,0,0,1,182.17,161.73Zm-53.7-8.47,51.95,7.23L88.64,88.08Z" style="fill:#263238"></path><polygon points="203.45 88.04 184.02 162.61 87.83 212.56 203.45 88.04" style="fill:#263238"></polygon><path d="M87.83,213.06a.5.5,0,0,1-.4-.19.51.51,0,0,1,0-.65L203.08,87.7a.5.5,0,0,1,.85.47l-19.42,74.57a.5.5,0,0,1-.26.31L88.06,213A.46.46,0,0,1,87.83,213.06ZM202.46,89.84l-112.3,121,93.43-48.52Z" style="fill:#263238"></path><polygon points="203.45 88.04 182.17 161.24 71.11 222.09 124.3 156.98 144.73 132.3 180.04 94.43 203.45 88.04" style="fill:#FFC100"></polygon><path d="M71.11,222.59a.53.53,0,0,1-.39-.18.51.51,0,0,1,0-.64l53.19-65.11L144.34,132l35.34-37.89a.51.51,0,0,1,.23-.15l23.41-6.38a.5.5,0,0,1,.49.13.52.52,0,0,1,.12.49l-21.28,73.19a.45.45,0,0,1-.24.3L71.35,222.52A.44.44,0,0,1,71.11,222.59ZM180.31,94.87l-35.22,37.77-20.4,24.66L73.12,220.41,181.75,160.9l21-72.14Z" style="fill:#263238"></path><polygon points="203.45 88.04 230.68 107.62 199.43 102.08 203.45 88.04" style="fill:#FFC100"></polygon><path d="M230.68,108.12h-.08l-31.26-5.54a.49.49,0,0,1-.39-.63l4-14a.48.48,0,0,1,.32-.34.49.49,0,0,1,.45.07L231,107.21a.5.5,0,0,1,.16.6A.49.49,0,0,1,230.68,108.12Zm-30.62-6.44,28.55,5.06L203.73,88.86Z" style="fill:#263238"></path><polygon points="182.17 161.24 78.77 85.92 124.3 156.98 182.17 161.24" style="fill:#FFC100"></polygon><path d="M182.17,161.73h0l-57.88-4.25a.5.5,0,0,1-.38-.23L78.35,86.19a.5.5,0,0,1,.71-.68l103.41,75.32a.5.5,0,0,1-.3.9Zm-57.58-5.23,55.87,4.11L80.62,87.89Z" style="fill:#263238"></path></g><g id="freepik--origami-bird-1--inject-100"><polygon points="171.34 335.82 134.3 275.19 109.16 371.76 132.09 377.49 171.34 335.82" style="fill:#FFC100"></polygon><path d="M132.09,378H132L109,372.25a.56.56,0,0,1-.31-.23.49.49,0,0,1,0-.39l25.13-96.57a.5.5,0,0,1,.41-.37.49.49,0,0,1,.5.23l37.05,60.64a.5.5,0,0,1-.07.6l-39.24,41.68A.51.51,0,0,1,132.09,378Zm-22.32-6.59,22.16,5.54,38.78-41.19-36.23-59.3Z" style="fill:#263238"></path><polygon points="204.05 293.44 211.32 303.5 202.46 301.05 204.05 293.44" style="fill:#263238"></polygon><path d="M211.32,304a.34.34,0,0,1-.14,0l-8.86-2.44A.5.5,0,0,1,202,301l1.59-7.61A.49.49,0,0,1,204,293a.51.51,0,0,1,.51.19l7.26,10.06a.5.5,0,0,1,0,.58A.52.52,0,0,1,211.32,304ZM203,300.7l7,1.94-5.77-8Z" style="fill:#263238"></path><polygon points="171.34 335.82 154.58 346.4 166.27 347.51 171.34 335.82" style="fill:#263238"></polygon><path d="M166.27,348h-.05l-11.69-1.1a.49.49,0,0,1-.43-.38.5.5,0,0,1,.21-.54l16.76-10.58a.5.5,0,0,1,.73.62l-5.07,11.69A.51.51,0,0,1,166.27,348Zm-10.18-2L166,347l4.28-9.86Z" style="fill:#263238"></path><polygon points="132.75 341.99 114.67 371.32 126.58 374.63 132.75 341.99" style="fill:#263238"></polygon><path d="M126.58,375.13l-.13,0-11.91-3.31a.47.47,0,0,1-.33-.3.46.46,0,0,1,0-.44l18.08-29.33a.5.5,0,0,1,.91.36l-6.17,32.63a.52.52,0,0,1-.49.41ZM115.45,371l10.74,3,5.57-29.44Z" style="fill:#263238"></path><polygon points="129.45 370.88 28.46 361.4 106.73 399.32 117.32 406.6 129.45 370.88" style="fill:#FFC100"></polygon><path d="M117.32,407.1A.47.47,0,0,1,117,407l-10.59-7.28L28.24,361.85a.5.5,0,0,1,.27-1l101,9.48a.53.53,0,0,1,.38.23.5.5,0,0,1,0,.43l-12.13,35.72a.5.5,0,0,1-.31.31Zm-86.15-45L107,398.87l10.11,6.94,11.71-34.49Z" style="fill:#263238"></path><polygon points="169.57 347.51 132.75 341.99 115.78 408.8 169.57 347.51" style="fill:#FFC100"></polygon><path d="M115.78,409.3a.52.52,0,0,1-.24-.05.51.51,0,0,1-.25-.57l17-66.81a.49.49,0,0,1,.56-.37L169.65,347a.5.5,0,0,1,.3.83l-53.8,61.29A.46.46,0,0,1,115.78,409.3Zm17.35-66.74-16.36,64.35,51.83-59Z" style="fill:#263238"></path><polygon points="204.05 293.44 200.75 290.39 193.63 295.99 169.74 339.71 192.87 353.43 204.05 293.44" style="fill:#FFC100"></polygon><path d="M192.87,353.93a.48.48,0,0,1-.26-.07l-23.13-13.73a.5.5,0,0,1-.18-.67l23.89-43.71a.51.51,0,0,1,.13-.16l7.12-5.59a.5.5,0,0,1,.65,0l3.3,3.05a.49.49,0,0,1,.15.46l-11.18,60a.52.52,0,0,1-.29.37A.45.45,0,0,1,192.87,353.93Zm-22.46-14.41,22.1,13.12,11-59-2.79-2.57-6.7,5.27Z" style="fill:#263238"></path><path d="M197.19,295.72a.5.5,0,0,1-.13-1l6.86-1.78a.5.5,0,0,1,.26,1l-6.87,1.78Z" style="fill:#263238"></path><polygon points="171.34 335.82 227.56 378.82 115.78 408.8 171.34 335.82" style="fill:#FFC100"></polygon><path d="M115.78,409.3a.5.5,0,0,1-.4-.8l55.56-73a.45.45,0,0,1,.33-.19.48.48,0,0,1,.37.09l56.23,43a.52.52,0,0,1,.19.49.51.51,0,0,1-.37.39l-111.79,30Zm55.65-72.78-54.37,71.42L226.45,378.6Z" style="fill:#263238"></path><path d="M192.75,373.43h0l-41.26-6.71a.26.26,0,0,1-.2-.29.25.25,0,0,1,.28-.21l41.26,6.71a.25.25,0,0,1,.2.29A.25.25,0,0,1,192.75,373.43Z" style="fill:#263238"></path><path d="M226,378.85h0l-29.3-4.76a.26.26,0,0,1-.21-.29.26.26,0,0,1,.29-.21l29.3,4.77a.25.25,0,0,1,.21.29A.26.26,0,0,1,226,378.85Z" style="fill:#263238"></path><path d="M116.84,391a.25.25,0,0,1-.16-.44l2.24-1.83a.25.25,0,0,1,.36,0,.25.25,0,0,1,0,.35L117,391A.27.27,0,0,1,116.84,391Z" style="fill:#263238"></path><path d="M108.28,398a.27.27,0,0,1-.2-.09.25.25,0,0,1,0-.35l6.69-5.47a.25.25,0,1,1,.32.39L108.44,398A.27.27,0,0,1,108.28,398Z" style="fill:#263238"></path><path d="M138.49,339.6a.24.24,0,0,1-.25-.24l-.42-6.82a.25.25,0,1,1,.5,0l.42,6.82a.26.26,0,0,1-.24.27Z" style="fill:#263238"></path><path d="M137.83,328.81a.26.26,0,0,1-.25-.24l-2.87-47.42a.25.25,0,0,1,.23-.26.26.26,0,0,1,.27.23l2.87,47.42a.26.26,0,0,1-.23.27Z" style="fill:#263238"></path></g></svg>