<svg width="167" height="147" viewBox="0 0 167 147" fill="none" xmlns="http://www.w3.org/2000/svg">
<path d="M153.534 44.6383C153.526 43.3106 153.048 42.0285 152.185 41.0195C151.322 40.0105 150.13 39.3397 148.819 39.1261L68.1945 25.8518C67.4214 25.7234 66.6299 25.7583 65.8711 25.954L46.9728 30.8321L36.1296 33.6343L16.1188 38.7982C14.9108 39.1114 13.8409 39.8166 13.0769 40.8033C12.3128 41.79 11.8978 43.0024 11.897 44.2503L11.8692 110.335C11.8747 111.623 12.3192 112.871 13.1295 113.872C13.9397 114.874 15.0672 115.569 16.3258 115.843L98.4461 133.351C98.8317 133.434 99.2251 133.475 99.6195 133.474C100.194 133.475 100.766 133.388 101.314 133.217L150.115 117.828C151.266 117.469 152.272 116.749 152.981 115.773C153.691 114.798 154.067 113.62 154.055 112.413L153.534 44.6383Z" fill="white"/>
<path d="M17.3545 111.023L99.4744 128.53C99.5943 128.556 99.7192 128.551 99.8366 128.515L148.631 113.128C148.776 113.084 148.902 112.994 148.991 112.872C149.081 112.749 149.127 112.601 149.125 112.45L148.61 44.6732C148.607 44.5079 148.547 44.3489 148.439 44.2232C148.332 44.0975 148.184 44.013 148.022 43.9841L147.479 43.8921L67.3929 30.7162C67.3563 30.7094 67.3191 30.7065 67.2819 30.7075C67.2212 30.706 67.1605 30.7125 67.1015 30.7268L21.0077 42.6275L17.3495 43.5689C17.1997 43.6095 17.0673 43.698 16.9724 43.8208C16.8776 43.9436 16.8255 44.0941 16.8242 44.2493L16.7978 110.332C16.7978 110.493 16.853 110.65 16.9543 110.775C17.0555 110.901 17.1968 110.988 17.3545 111.023Z" fill="#F9A826"/>
<path d="M21.0077 42.6275L67.1015 30.7267C67.1606 30.7125 67.2212 30.706 67.2819 30.7074C67.3191 30.7065 67.3563 30.7094 67.3929 30.7162L147.479 43.8921L127.759 49.218L120.378 51.2074L99.3777 56.8747C99.3158 56.8878 99.2531 56.897 99.19 56.9023C99.1502 56.8969 99.1104 56.8916 99.0628 56.8867L21.0077 42.6275Z" fill="#2F2E41"/>
<path d="M16.3252 115.847L98.4451 133.354C98.8314 133.436 99.2256 133.475 99.6205 133.469C100.196 133.472 100.768 133.388 101.318 133.22L150.112 117.834C151.264 117.474 152.269 116.752 152.98 115.776C153.69 114.8 154.067 113.622 154.055 112.415L153.533 44.6384C153.526 43.6392 153.254 42.6596 152.746 41.7992C152.675 41.6853 152.605 41.5714 152.527 41.4658C151.995 40.6911 151.274 40.0655 150.431 39.6485C149.924 39.3942 149.38 39.2183 148.82 39.1268L148.724 39.1091L68.1986 25.8504C67.8704 25.8007 67.539 25.7741 67.207 25.771C66.7551 25.779 66.3058 25.8418 65.869 25.9581L46.9728 30.8294L36.1315 33.6373L16.117 38.8003C15.298 39.0106 14.5375 39.4041 13.8928 39.951C13.8419 39.9866 13.7942 40.0265 13.7503 40.0705C13.7186 40.0993 13.689 40.1302 13.6615 40.163C13.106 40.688 12.6632 41.3207 12.3601 42.0224C12.0571 42.7241 11.9 43.4801 11.8986 44.2445L11.8649 110.335C11.8707 111.624 12.3157 112.873 13.1266 113.875C13.9375 114.877 15.0657 115.573 16.3252 115.847ZM13.3039 44.2505C13.306 43.4581 13.5335 42.6827 13.96 42.0148C14.0873 41.8015 14.236 41.6017 14.4038 41.4184C14.8608 40.9104 15.4351 40.5218 16.0767 40.2867C16.2031 40.2388 16.3324 40.199 16.4638 40.1675L50.1628 31.4726L66.2232 27.317C66.3317 27.2864 66.4334 27.2721 66.5347 27.25C66.7807 27.2054 67.0305 27.1843 67.2805 27.1871C67.5091 27.1804 67.7377 27.1977 67.9626 27.2387L148.584 40.515C148.648 40.5267 148.704 40.539 148.768 40.5507C149.505 40.6986 150.188 41.0459 150.741 41.5548C151.176 41.9426 151.525 42.4179 151.764 42.9496C152.003 43.4813 152.127 44.0574 152.128 44.6403L152.643 112.425C152.652 113.329 152.371 114.211 151.84 114.943C151.309 115.674 150.557 116.215 149.695 116.487L100.893 131.873C100.194 132.09 99.4518 132.123 98.7366 131.97L16.6172 114.471C15.6748 114.263 14.831 113.741 14.2243 112.991C13.6175 112.24 13.2839 111.306 13.2781 110.341L13.3039 44.2505Z" fill="#3F3D56"/>
<path d="M13.5512 40.541C13.5734 40.4172 13.6288 40.3018 13.7117 40.2072C13.7394 40.1768 13.7693 40.1486 13.8011 40.1226C13.8315 40.1049 13.8615 40.0793 13.892 40.0616C14.0372 39.9744 14.2096 39.9439 14.3759 39.9759L16.0768 40.2868L99.1631 55.4754L117.261 50.5913L127.389 47.86L148.824 42.0706L150.741 41.5549L151.114 41.4525C151.275 41.4115 151.445 41.428 151.595 41.4993C151.745 41.5705 151.866 41.692 151.936 41.8426C151.952 41.8773 151.965 41.9135 151.974 41.9507C152.014 42.0979 152.005 42.2541 151.948 42.3957C151.892 42.5374 151.791 42.6569 151.661 42.7361C151.603 42.7715 151.541 42.7993 151.476 42.8188L148.869 43.5202L127.759 49.218L120.379 51.2074L99.3778 56.8747C99.3159 56.8878 99.2531 56.897 99.1901 56.9023C99.1503 56.8969 99.1105 56.8915 99.0628 56.8866L14.4038 41.4185L14.1163 41.3656C14.0507 41.3551 13.9877 41.3323 13.9306 41.2984C13.7951 41.2288 13.6853 41.1179 13.6171 40.9817C13.5489 40.8455 13.5258 40.6911 13.5512 40.541Z" fill="#3F3D56"/>
<path d="M99.8635 133.638C99.6779 133.638 99.4998 133.565 99.368 133.434C99.2362 133.303 99.1613 133.126 99.1597 132.94L98.488 56.2006C98.4864 56.0139 98.559 55.8342 98.6899 55.701C98.8207 55.5678 98.9991 55.4921 99.1858 55.4904L99.1922 55.4904C99.3778 55.4905 99.5559 55.5639 99.6877 55.6946C99.8195 55.8253 99.8944 56.0027 99.896 56.1883L100.568 132.928C100.569 133.115 100.497 133.295 100.366 133.428C100.235 133.561 100.057 133.637 99.8699 133.638L99.8635 133.638Z" fill="#3F3D56"/>
<path d="M127.728 124.315L120.345 126.306L117.265 50.5886C117.265 50.5886 127.005 47.1711 127.39 47.8565C127.624 48.2649 127.724 123.826 127.728 124.315Z" fill="#3F3D56"/>
<path d="M14.0059 43.4828L24.8687 18.6708L87.8705 26.8125L98.3824 56.8432L14.0059 43.4828Z" fill="#3F3D56"/>
<path d="M150.744 41.5557C150.142 41.0054 149.391 40.6436 148.586 40.5149L67.9666 27.2392C67.7401 27.2012 67.5108 27.1827 67.2812 27.1838C67.0304 27.1809 66.7798 27.2019 66.5329 27.2465L66.5332 26.4509L67.211 25.7737L83.2875 9.71064L146.964 18.6231L150.429 39.6492L150.744 41.5557Z" fill="#3F3D56"/>
<path d="M25.862 95.2811C25.9495 95.2757 26.0374 95.28 26.124 95.2939L50.8428 99.2581C51.1523 99.3077 51.4294 99.4782 51.6132 99.7321C51.797 99.9859 51.8724 100.302 51.8228 100.612C51.7733 100.921 51.6028 101.198 51.349 101.382C51.0951 101.566 50.7786 101.641 50.4691 101.592L25.7503 97.6276C25.4634 97.5815 25.2034 97.4313 25.0202 97.2057C24.837 96.98 24.7433 96.6948 24.7571 96.4045C24.7709 96.1141 24.8912 95.8391 25.095 95.6319C25.2989 95.4247 25.5719 95.2998 25.862 95.2811Z" fill="white"/>
</svg>
