<svg width="250" height="190" viewBox="0 0 250 190" fill="none" xmlns="http://www.w3.org/2000/svg">
<path d="M176.479 157.431C216.796 157.431 249.479 124.748 249.479 84.4314C249.479 44.1146 216.796 11.4314 176.479 11.4314C136.163 11.4314 103.479 44.1146 103.479 84.4314C103.479 124.748 136.163 157.431 176.479 157.431Z" fill="#F9A826"/>
<path d="M176.493 129.181C180.194 129.181 183.195 126.181 183.195 122.479C183.195 118.777 180.194 115.776 176.493 115.776C172.791 115.776 169.79 118.777 169.79 122.479C169.79 126.181 172.791 129.181 176.493 129.181Z" fill="white"/>
<path d="M176.464 39.6814C175.849 43.7726 176.952 44.6287 176.958 62.2665C176.964 79.9043 180.624 103.552 176.486 103.554C172.349 103.555 170.836 54.7509 156.47 50.4315C139.579 45.353 178.457 26.4374 176.464 39.6814Z" fill="white"/>
<path d="M78.5033 121.702L71.908 135.637C79.8813 129.92 92.3351 124.991 102.246 122.352C93.0116 117.891 81.7125 110.7 74.9621 103.58L78.7555 118.304C34.2816 109.246 2.34412 75.1275 2.3306 36.0449L0.724121 35.4922C0.738241 76.315 32.2338 112.453 78.5033 121.702Z" fill="#3F3D56"/>
<path d="M209.744 189.42L50.2874 189.475C42.2767 189.478 35.101 185.338 31.0932 178.402C29.0891 174.934 28.0868 171.129 28.0855 167.323C28.0841 163.518 29.0843 159.712 31.0855 156.242L110.763 11.1934C114.767 4.25404 121.94 0.109949 129.95 0.107179C137.961 0.104409 145.137 4.24353 149.145 11.1801L228.934 156.192C230.932 159.651 231.932 163.452 231.933 167.255C231.932 171.058 230.933 174.864 228.931 178.334C224.928 185.273 217.755 189.417 209.744 189.42ZM30.0898 167.32C30.0896 170.784 47.6851 163.32 49.508 166.475C53.1542 172.786 42.9987 187.478 50.2868 187.475C50.2868 187.475 223.557 183.647 227.199 177.334C229.019 174.178 229.929 170.715 229.928 167.253C229.927 163.791 229.015 160.33 227.191 157.175L147.403 12.1627C143.767 5.87047 137.239 2.10466 129.951 2.10718C122.666 2.1097 30.0901 163.856 30.0898 167.32Z" fill="#3F3D56"/>
</svg>
