<svg width="500" height="500" viewBox="0 0 500 500" fill="none" xmlns="http://www.w3.org/2000/svg">
<path d="M345.891 430.368C345.891 430.368 421.392 368.051 439.245 270.893C457.098 173.735 383.971 154.215 341.08 121.315C298.188 88.4139 282.425 51.3794 220.259 49.1384C158.092 46.8973 125.926 71.9353 103.496 120.429C81.0662 168.924 69.0133 218.708 61.9322 267.324C54.8511 315.941 58.3069 354.727 98.1945 374.059C138.082 393.39 156.576 384.897 175.559 407.176C194.543 429.455 280.919 479.842 345.891 430.368Z" fill="#FFC100"/>
<path opacity="0.7" d="M345.891 430.368C345.891 430.368 421.392 368.051 439.245 270.893C457.098 173.735 383.971 154.215 341.08 121.315C298.188 88.4139 282.425 51.3794 220.259 49.1384C158.092 46.8973 125.926 71.9353 103.496 120.429C81.0662 168.924 69.0133 218.708 61.9322 267.324C54.8511 315.941 58.3069 354.727 98.1945 374.059C138.082 393.39 156.576 384.897 175.559 407.176C194.543 429.455 280.919 479.842 345.891 430.368Z" fill="white"/>
<path d="M329.003 302.193L329.003 302.194C329.288 302.683 329.583 303.193 329.881 303.709C330.207 304.273 330.536 304.844 330.861 305.401C332.444 308.121 333.214 311.238 333.08 314.384C332.946 317.529 331.914 320.57 330.106 323.146L330.105 323.147C326.256 328.652 319.604 331.385 312.68 330.238L165.778 305.888C158.82 304.734 153.365 299.988 151.512 293.511L151.512 293.509C150.637 290.489 150.646 287.281 151.537 284.265C152.428 281.249 154.163 278.551 156.538 276.491L156.542 276.488C157.372 275.754 158.187 275.047 158.991 274.35L159.332 274.055L159.332 274.055L159.345 274.043C165.62 268.595 170.719 264.168 174.974 256.594C179.227 249.024 182.622 238.343 185.597 220.391C188.284 204.182 193.74 191.381 202.054 181.818C210.365 172.259 221.563 165.899 235.799 162.619L235.828 162.612L235.856 162.602C236.066 162.526 236.263 162.416 236.437 162.275L236.523 162.205L236.572 162.105C242.918 149.12 255.564 141.873 268.064 143.945C280.564 146.017 290.199 156.957 292.014 171.31L292.027 171.415L292.082 171.506C292.202 171.703 292.355 171.878 292.536 172.022L292.559 172.04L292.584 172.056C303.228 178.652 310.816 186.435 315.819 195.851L315.819 195.851C322.607 208.599 324.52 224.444 321.457 242.926C318.482 260.87 318.252 272.072 319.836 280.609C321.419 289.139 324.808 294.973 328.975 302.145L329.003 302.193ZM268.33 339.56L268.33 339.56C268.573 339.6 268.802 339.703 268.993 339.857C269.185 340.012 269.334 340.213 269.425 340.442C269.516 340.672 269.546 340.92 269.513 341.165C269.479 341.409 269.384 341.64 269.235 341.836C265.03 347.279 259.432 351.483 253.034 354.002C246.635 356.521 239.675 357.26 232.891 356.141C226.11 355.01 219.761 352.065 214.518 347.616C209.275 343.168 205.333 337.383 203.111 330.875C203.033 330.641 203.017 330.391 203.064 330.149C203.112 329.907 203.221 329.681 203.381 329.494C203.542 329.306 203.748 329.164 203.98 329.079C204.212 328.995 204.462 328.973 204.705 329.014L204.706 329.014L268.33 339.56Z" fill="#F1B804" stroke="black"/>
</svg>
