<svg width="156" height="143" viewBox="0 0 156 143" fill="none" xmlns="http://www.w3.org/2000/svg">
<path d="M95.7774 7.16794C96.3593 5.2933 99.1266 5.18452 99.83 7.01703C103.464 16.4842 110.805 34.5505 116.581 42.0027C122.233 49.2939 138.615 55.2667 147.745 58.145C149.633 58.7401 149.729 61.566 147.877 62.2651C139.221 65.5328 123.876 71.7569 117.581 77.0027C108.776 84.3402 103.305 101.018 100.475 112.273C99.9285 114.448 96.0184 114.497 95.4277 112.333C92.3083 100.908 86.4099 83.7659 77.5813 76.0027C70.4501 69.7321 56.8761 65.1803 47.9015 62.6896C45.8355 62.1163 45.7922 58.711 47.8426 58.0843C57.4164 55.1579 72.294 49.7126 79.0812 42.5027C86.5678 34.5499 92.8336 16.6504 95.7774 7.16794Z" fill="white"/>
<path d="M42.9236 89.5283C43.2176 88.5919 44.6026 88.5392 44.956 89.4549C46.6281 93.7885 49.8432 101.634 52.3855 104.914C54.8663 108.114 61.9381 110.751 66.1015 112.082C67.0443 112.384 67.0944 113.804 66.1692 114.155C62.225 115.655 55.597 118.374 52.8359 120.675C49.0127 123.861 46.5854 130.957 45.2743 136.004C44.9923 137.09 43.0105 137.113 42.7074 136.033C41.2671 130.903 38.6597 123.597 34.8237 120.224C31.7257 117.5 25.9275 115.496 21.8937 114.352C20.8625 114.059 20.8415 112.341 21.8649 112.022C26.1798 110.676 32.5433 108.279 35.4991 105.139C38.7928 101.64 41.5618 93.8662 42.9236 89.5283Z" fill="white"/>
<path d="M16.299 7.36101C16.61 6.43012 18.0167 6.37973 18.3789 7.29188C19.5152 10.1532 21.2917 14.2924 22.732 16.1505C24.1195 17.9406 27.7427 19.4559 30.422 20.3825C31.3574 20.706 31.4036 22.1511 30.4832 22.515C27.9544 23.5146 24.5569 24.9956 23.0212 26.2753C21.035 27.9306 19.6352 31.229 18.7268 34.1452C18.3934 35.2158 16.2664 35.2386 15.9171 34.173C14.9357 31.1799 13.4538 27.748 11.45 25.986C9.83308 24.5642 7.07102 23.4479 4.70218 22.6847C3.68181 22.3559 3.65724 20.5607 4.66907 20.2065C7.25021 19.3031 10.3147 17.9622 11.884 16.2952C13.745 14.3182 15.3453 10.2166 16.299 7.36101Z" fill="white"/>
</svg>
