<svg width="172" height="260" viewBox="0 0 172 260" fill="none" xmlns="http://www.w3.org/2000/svg">
<path d="M93.1171 185.402H86.5156V234.655H93.1171V185.402Z" fill="#F9A826"/>
<path d="M116.815 207.276L111.98 211.779L89.8232 187.936L67.6582 211.779L62.8232 207.276L89.8232 178.243L116.815 207.276Z" fill="#F9A826"/>
<path d="M87.9879 259.41C77.5427 259.41 67.332 256.313 58.6471 250.51C49.9622 244.707 43.1931 236.458 39.1959 226.808C35.1987 217.158 34.1528 206.539 36.1906 196.295C38.2283 186.05 43.2582 176.64 50.6441 169.254C58.03 161.868 67.4402 156.838 77.6848 154.801C87.9293 152.763 98.5481 153.809 108.198 157.806C117.848 161.803 126.096 168.572 131.9 177.257C137.703 185.942 140.8 196.153 140.8 206.598C140.784 220.6 135.215 234.024 125.314 243.924C115.413 253.825 101.99 259.394 87.9879 259.41ZM87.9879 160.387C78.8483 160.387 69.914 163.098 62.3147 168.175C54.7154 173.253 48.7925 180.47 45.2949 188.914C41.7973 197.358 40.8822 206.649 42.6652 215.613C44.4483 224.577 48.8494 232.811 55.3121 239.274C61.7747 245.736 70.0087 250.138 78.9726 251.921C87.9366 253.704 97.228 252.789 105.672 249.291C114.116 245.793 121.333 239.871 126.411 232.271C131.488 224.672 134.198 215.738 134.198 206.598C134.185 194.346 129.312 182.601 120.648 173.937C111.985 165.274 100.239 160.401 87.9879 160.387Z" fill="#F9A826"/>
<path d="M145.393 84.9314H141.753V112.087H145.393V84.9314Z" fill="#F9A826"/>
<path d="M158.458 96.9919L155.793 99.4749L143.576 86.3279L131.356 99.4749L128.69 96.9919L143.576 80.9839L158.458 96.9919Z" fill="#F9A826"/>
<path d="M142.564 125.736C136.805 125.736 131.176 124.028 126.387 120.829C121.599 117.629 117.867 113.082 115.663 107.761C113.459 102.44 112.882 96.5857 114.006 90.9374C115.129 85.289 117.903 80.1007 121.975 76.0285C126.047 71.9562 131.235 69.183 136.884 68.0595C142.532 66.936 148.387 67.5126 153.707 69.7165C159.028 71.9204 163.576 75.6525 166.775 80.4409C169.975 85.2293 171.682 90.859 171.682 96.618C171.674 104.338 168.603 111.739 163.144 117.198C157.685 122.657 150.284 125.727 142.564 125.736ZM142.564 71.1399C137.525 71.1399 132.599 72.6341 128.409 75.4337C124.22 78.2333 120.954 82.2124 119.026 86.868C117.097 91.5235 116.593 96.6463 117.576 101.589C118.559 106.531 120.985 111.071 124.548 114.634C128.112 118.197 132.651 120.624 137.594 121.607C142.536 122.59 147.659 122.085 152.314 120.157C156.97 118.229 160.949 114.963 163.749 110.773C166.548 106.583 168.042 101.657 168.043 96.6181C168.035 89.8632 165.348 83.3871 160.572 78.6107C155.795 73.8342 149.319 71.1475 142.564 71.1399Z" fill="#F9A826"/>
<path d="M32.1622 17.7388H28.5225V44.8942H32.1622V17.7388Z" fill="#F9A826"/>
<path d="M45.229 29.799L42.563 32.282L30.346 19.136L18.126 32.282L15.46 29.799L30.346 13.792L45.229 29.799Z" fill="#F9A826"/>
<path d="M29.3348 58.5431C23.5758 58.5431 17.9461 56.8354 13.1577 53.6359C8.36928 50.4364 4.63716 45.8887 2.43329 40.5681C0.229414 35.2475 -0.34722 29.3928 0.776304 23.7445C1.89983 18.0962 4.67304 12.9078 8.74527 8.8356C12.8175 4.76337 18.0058 1.99016 23.6542 0.866636C29.3025 -0.256888 35.1572 0.319746 40.4778 2.52362C45.7984 4.72749 50.346 8.45961 53.5456 13.248C56.7451 18.0365 58.4528 23.6661 58.4528 29.4251C58.4441 37.145 55.3735 44.5463 49.9147 50.0051C44.4559 55.4639 37.0547 58.5344 29.3348 58.5431ZM29.3348 3.94699C24.2957 3.94699 19.3697 5.44126 15.1799 8.24084C10.99 11.0404 7.7244 15.0196 5.79602 19.6751C3.86763 24.3306 3.36308 29.4535 4.34616 34.3957C5.32924 39.338 7.75581 43.8778 11.319 47.441C14.8822 51.0042 19.422 53.4308 24.3643 54.4138C29.3065 55.3969 34.4294 54.8924 39.0849 52.964C43.7404 51.0356 47.7196 47.77 50.5192 43.5801C53.3187 39.3903 54.813 34.4643 54.813 29.4252C54.8054 22.6703 52.1187 16.1943 47.3422 11.4178C42.5658 6.64138 36.0897 3.95461 29.3348 3.94699Z" fill="#F9A826"/>
</svg>
