<svg width="881" height="740" viewBox="0 0 881 740" fill="none" xmlns="http://www.w3.org/2000/svg">
<path d="M361.595 424.34C365.725 423.74 368.734 420.923 368.316 418.05C367.898 415.177 364.211 413.336 360.081 413.936C355.952 414.537 352.942 417.353 353.36 420.226C353.778 423.099 357.465 424.941 361.595 424.34Z" fill="#E6E6E6"/>
<path d="M312.424 419.542C316.554 418.941 319.563 416.125 319.145 413.252C318.727 410.379 315.04 408.537 310.91 409.138C306.78 409.739 303.771 412.555 304.189 415.428C304.607 418.301 308.294 420.143 312.424 419.542Z" fill="#3F3D56"/>
<path d="M375.06 384.532C379.19 383.931 382.199 381.115 381.781 378.242C381.363 375.369 377.676 373.527 373.546 374.128C369.416 374.729 366.407 377.545 366.825 380.418C367.243 383.291 370.93 385.133 375.06 384.532Z" fill="#FF6584"/>
<path d="M391.55 368.863C393.385 368.849 394.856 366.699 394.836 364.062C394.816 361.424 393.312 359.297 391.478 359.311C389.643 359.325 388.171 361.475 388.191 364.112C388.211 366.75 389.715 368.877 391.55 368.863Z" fill="#E6E6E6"/>
<path d="M398.795 338.491C400.63 338.477 402.101 336.328 402.081 333.69C402.061 331.053 400.558 328.926 398.723 328.94C396.888 328.954 395.417 331.103 395.437 333.74C395.457 336.378 396.961 338.505 398.795 338.491Z" fill="#3F3D56"/>
<path d="M342.45 391.943C344.285 391.929 345.756 389.78 345.736 387.142C345.716 384.505 344.213 382.378 342.378 382.392C340.543 382.406 339.072 384.555 339.092 387.192C339.112 389.83 340.615 391.957 342.45 391.943Z" fill="#E6E6E6"/>
<path d="M366.212 403.807C368.047 403.793 369.518 401.644 369.498 399.006C369.478 396.369 367.975 394.242 366.14 394.256C364.305 394.27 362.834 396.419 362.854 399.056C362.874 401.694 364.377 403.821 366.212 403.807Z" fill="#FF6584"/>
<path d="M333.135 425.735C334.969 425.721 336.441 423.571 336.421 420.934C336.401 418.296 334.897 416.17 333.062 416.183C331.228 416.197 329.756 418.347 329.776 420.984C329.796 423.622 331.3 425.749 333.135 425.735Z" fill="#3F3D56"/>
<path d="M207.158 453.558C211.222 452.611 213.983 449.551 213.324 446.723C212.665 443.896 208.836 442.372 204.772 443.319C200.707 444.266 197.946 447.326 198.605 450.154C199.264 452.981 203.093 454.505 207.158 453.558Z" fill="#E6E6E6"/>
<path d="M256.559 454.19C260.624 453.243 263.384 450.183 262.725 447.356C262.067 444.528 258.237 443.004 254.173 443.951C250.108 444.898 247.348 447.958 248.007 450.786C248.665 453.613 252.495 455.137 256.559 454.19Z" fill="#3F3D56"/>
<path d="M197.1 494.36C201.165 493.413 203.925 490.353 203.266 487.526C202.608 484.698 198.778 483.174 194.714 484.121C190.649 485.068 187.889 488.128 188.548 490.956C189.206 493.783 193.036 495.308 197.1 494.36Z" fill="#FF6584"/>
<path d="M180.482 510.637C182.31 510.468 183.594 508.202 183.352 505.576C183.109 502.95 181.432 500.957 179.605 501.126C177.778 501.294 176.493 503.56 176.735 506.187C176.978 508.813 178.655 510.806 180.482 510.637Z" fill="#E6E6E6"/>
<path d="M175.825 541.512C177.652 541.343 178.937 539.077 178.695 536.451C178.452 533.824 176.775 531.832 174.947 532.001C173.12 532.169 171.836 534.435 172.078 537.062C172.32 539.688 173.998 541.68 175.825 541.512Z" fill="#3F3D56"/>
<path d="M227.46 483.496C229.287 483.328 230.571 481.062 230.329 478.435C230.086 475.809 228.409 473.817 226.582 473.985C224.755 474.154 223.47 476.42 223.712 479.046C223.955 481.673 225.632 483.665 227.46 483.496Z" fill="#E6E6E6"/>
<path d="M202.782 473.68C204.609 473.511 205.893 471.245 205.651 468.619C205.409 465.992 203.731 464 201.904 464.168C200.077 464.337 198.792 466.603 199.035 469.229C199.277 471.856 200.955 473.848 202.782 473.68Z" fill="#FF6584"/>
<path d="M233.891 449.039C235.718 448.871 237.002 446.605 236.76 443.978C236.518 441.352 234.84 439.36 233.013 439.528C231.186 439.697 229.901 441.963 230.144 444.589C230.386 447.216 232.064 449.208 233.891 449.039Z" fill="#3F3D56"/>
<path d="M162.283 696.394L149.359 669.08L149.282 669.136V633.634H137.657V669.136L137.58 669.08L124.656 697.169C124.485 697.468 124.43 697.821 124.503 698.158C124.576 698.496 124.771 698.794 125.05 698.997C125.329 699.2 125.674 699.293 126.017 699.257C126.36 699.222 126.679 699.062 126.911 698.806L140.13 683.338L142.269 697.422C142.307 697.765 142.471 698.082 142.728 698.312C142.985 698.543 143.318 698.67 143.663 698.67C144.008 698.67 144.341 698.543 144.598 698.312C144.855 698.082 145.019 697.765 145.057 697.422L147.172 683.493L160.028 698.031C160.26 698.286 160.578 698.447 160.922 698.482C161.265 698.518 161.609 698.425 161.889 698.222C162.168 698.019 162.363 697.721 162.435 697.383C162.508 697.046 162.454 696.693 162.283 696.394Z" fill="#2F2E41"/>
<path d="M69.9612 593.809C67.903 607.426 97.6855 631.363 141.592 638C185.499 644.636 228.335 635.05 230.394 621.433C232.452 607.816 198.318 593.91 154.411 587.273C110.504 580.636 72.0195 580.192 69.9612 593.809Z" fill="#F9A826"/>
<path opacity="0.3" d="M69.9612 593.809C67.903 607.426 97.6855 631.363 141.592 638C185.499 644.636 228.335 635.05 230.394 621.433C232.452 607.816 198.318 593.91 154.411 587.273C110.504 580.636 72.0195 580.192 69.9612 593.809Z" fill="black"/>
<path d="M71.691 591.816C69.9958 603.031 99.0582 622.28 142.965 628.917C186.872 635.553 229.147 630.811 230.842 619.596C232.537 608.381 198.318 593.909 154.411 587.273C110.504 580.636 73.3862 580.601 71.691 591.816Z" fill="#F9A826"/>
<path d="M629 181.602H7C5.14411 181.604 3.36482 182.342 2.05251 183.655C0.740193 184.967 0.00204076 186.746 0 188.602V692.602C0.00401291 694.458 0.742802 696.236 2.05469 697.548C3.36657 698.859 5.14472 699.598 7 699.602H629C630.856 699.6 632.635 698.862 633.948 697.55C635.26 696.237 635.998 694.458 636 692.602V188.602C635.998 186.746 635.26 184.967 633.948 183.655C632.635 182.342 630.856 181.604 629 181.602ZM634 692.602C634 693.928 633.473 695.2 632.535 696.137C631.597 697.075 630.326 697.602 629 697.602H7C5.67406 697.602 4.40257 697.075 3.465 696.137C2.52742 695.2 2.00048 693.928 2 692.602V188.602C2.00218 187.277 2.52966 186.006 3.46687 185.069C4.40408 184.132 5.67459 183.604 7 183.602H629C630.325 183.604 631.596 184.132 632.533 185.069C633.47 186.006 633.998 187.277 634 188.602V692.602ZM0 303.062V317.962C0.25 317.982 0.51001 317.982 0.76001 317.992L0.26001 346.632L0 346.492V349.312L0.210007 349.422L0 361.432V402.832H2V296.312C1.44 298.472 0.773333 300.722 0 303.062Z" fill="#3F3D56"/>
<path d="M597.35 514.436C569.61 514.436 542.782 504.529 521.7 486.5C514.667 480.48 507.173 470.014 499.428 455.395C494.485 445.979 491.716 435.573 491.326 424.945C490.935 414.318 492.933 403.737 497.172 393.983C493.086 398.14 488.567 401.846 483.692 405.04L481.228 406.68L481.085 403.725C480.992 401.803 480.944 399.887 480.944 398.031C480.944 387.095 489.216 375.998 485.401 365.889C469.323 323.283 418.326 280.942 492.236 215.004C499.073 208.904 489.94 196.708 489.94 187.48C489.94 97.0361 617.767 -59.434 653.996 23.4552C698.675 125.679 775.651 114.745 809.753 135.859L810.247 137.352L808.79 137.942C801.326 141.079 793.466 143.17 785.43 144.155C793.997 145.902 802.739 146.635 811.477 146.337L812.832 146.29L813.162 147.607C816.412 160.649 818.055 174.039 818.053 187.48L818.047 188.932C818.017 199.141 820.138 209.242 824.273 218.576C828.409 227.91 834.465 236.267 842.047 243.104C854.023 254.023 863.592 267.318 870.146 282.14C876.699 296.963 880.093 312.988 880.11 329.195C880.11 348.369 867.078 373.537 856.146 391.275C853.375 395.793 849.617 399.626 845.154 402.484C840.691 405.343 835.639 407.154 830.376 407.781C825.391 408.41 820.329 407.935 815.547 406.391C810.766 404.846 806.383 402.27 802.708 398.843C807.883 409.248 814.626 418.795 822.701 427.15L824.193 428.687L822.341 429.766C804.543 440.144 784.308 445.608 763.706 445.601L762.499 445.597C731.22 445.597 701.53 457.715 681.042 478.844C670.165 490.05 657.158 498.971 642.786 505.083C628.415 511.194 612.967 514.374 597.35 514.436Z" fill="#E6E6E6"/>
<path d="M557.302 698.78C556.798 698.779 556.311 698.597 555.931 698.266C555.551 697.936 555.303 697.48 555.232 696.981C555.143 696.356 546.431 633.527 554.255 550.025C561.481 472.909 584.685 361.834 654.194 270.61C654.361 270.391 654.569 270.207 654.807 270.068C655.044 269.929 655.307 269.839 655.58 269.801C655.853 269.764 656.13 269.781 656.396 269.851C656.662 269.922 656.912 270.044 657.131 270.211C657.35 270.377 657.534 270.586 657.672 270.824C657.811 271.062 657.901 271.325 657.937 271.598C657.974 271.871 657.956 272.148 657.885 272.414C657.815 272.68 657.692 272.93 657.525 273.148C588.615 363.584 565.598 473.844 558.424 550.416C550.645 633.432 559.289 695.771 559.377 696.391C559.419 696.688 559.397 696.991 559.312 697.278C559.226 697.566 559.081 697.832 558.884 698.059C558.687 698.285 558.444 698.467 558.171 698.591C557.898 698.715 557.602 698.78 557.302 698.78Z" fill="#3F3D56"/>
<path d="M614.026 399.286C613.584 399.286 613.153 399.147 612.795 398.887C612.437 398.627 612.17 398.261 612.033 397.84C611.897 397.42 611.896 396.967 612.033 396.546C612.169 396.126 612.436 395.759 612.793 395.499C613.046 395.316 638.474 376.993 676.49 363.074C711.632 350.208 765.072 338.544 820.087 356.054C820.616 356.222 821.056 356.594 821.311 357.087C821.566 357.58 821.615 358.154 821.447 358.683C821.278 359.212 820.907 359.653 820.414 359.908C819.921 360.163 819.346 360.211 818.817 360.043C764.93 342.893 712.459 354.364 677.93 367.006C640.457 380.726 615.503 398.706 615.255 398.886C614.898 399.146 614.467 399.286 614.026 399.286Z" fill="#3F3D56"/>
<path d="M518.214 160.653C518.181 160.212 518.29 159.772 518.523 159.397C518.756 159.021 519.102 158.729 519.512 158.562C519.921 158.395 520.373 158.362 520.803 158.468C521.232 158.574 521.617 158.813 521.902 159.151C522.103 159.39 542.209 183.433 558.83 220.347C574.193 254.472 589.675 306.933 576.173 363.066C576.109 363.333 575.992 363.585 575.831 363.808C575.669 364.03 575.465 364.218 575.231 364.362C574.996 364.505 574.736 364.601 574.464 364.644C574.193 364.687 573.916 364.676 573.648 364.612C573.381 364.547 573.129 364.431 572.907 364.269C572.684 364.108 572.496 363.904 572.353 363.669C572.209 363.435 572.113 363.175 572.07 362.903C572.027 362.632 572.038 362.354 572.103 362.087C585.327 307.104 570.107 255.596 555.012 222.066C538.628 185.679 518.898 162.084 518.701 161.85C518.416 161.513 518.245 161.094 518.214 160.653Z" fill="#3F3D56"/>
<path d="M544.642 631.295L542.223 641.693C542.223 641.693 542.199 651.28 540.501 653.048C538.815 654.807 501.739 651.275 501.739 651.275C501.739 651.275 505.67 635.825 505.617 624.135L544.642 631.295Z" fill="#FFB6B6"/>
<path d="M401.641 726.182L395.259 721.581L410.122 694.119L419.541 700.909L401.641 726.182Z" fill="#FFB6B6"/>
<path d="M395.85 734.823L391.575 730.768L394.641 726.008L388.858 728.189L377.521 717.432C376.977 716.917 376.613 716.241 376.48 715.503C376.348 714.766 376.455 714.006 376.786 713.333C377.116 712.661 377.653 712.112 378.318 711.767C378.982 711.421 379.74 711.297 380.48 711.412L395.467 713.75L399.338 709.67L408.322 719.274L395.85 734.823Z" fill="#2F2E41"/>
<path d="M405.455 700.3L416.999 705.47C428.96 692.821 440.994 676.572 448.535 650C465.76 672.302 480.935 684.928 501.535 696C508.492 699.768 533.657 701.12 537.572 694.066C537.755 693.737 537.925 693.401 538.082 693.058C541.682 685.128 538.499 664.487 540.535 654C533.097 640.349 514.949 651.376 502.535 646L488.646 652.034L462.886 621.406C461.628 619.941 460.093 618.738 458.369 617.868C456.645 616.998 454.765 616.479 452.839 616.338C450.913 616.198 448.978 616.441 447.146 617.052C445.314 617.663 443.622 618.63 442.165 619.899C441.835 620.18 441.516 620.475 441.211 620.784C436.018 629.593 431.056 638.253 426.528 646.63C425.067 649.335 420.466 652.969 422.286 654.651C424.106 656.332 419.464 660.19 418.148 662.899C410.046 679.571 406.658 688.1 405.455 700.3Z" fill="#2F2E41"/>
<path d="M482.358 656.312C483.254 656.258 484.128 656.009 484.917 655.581C485.707 655.153 486.393 654.557 486.928 653.836C487.462 653.114 487.832 652.284 488.011 651.404C488.19 650.524 488.173 649.615 487.963 648.742L527.595 618.994L517.226 614.394L480.109 644.253C478.666 644.704 477.438 645.668 476.658 646.963C475.878 648.258 475.6 649.795 475.878 651.281C476.155 652.768 476.967 654.101 478.162 655.028C479.356 655.955 480.849 656.412 482.358 656.312Z" fill="#FFB6B6"/>
<path d="M527.821 575.444C527.821 575.444 535.378 573.299 538.682 581.663C541.987 590.027 532.132 616.263 530.671 620.539C529.209 624.815 502.348 637.792 502.348 637.792L490.625 633.785C498.685 624.163 506.334 616.333 512.57 614.661L527.821 575.444Z" fill="#F9A826"/>
<path d="M550.03 565.467L534.74 564.564C534.095 564.526 533.455 564.69 532.907 565.034C532.36 565.377 531.934 565.882 531.688 566.48L527.367 576.954L509.409 591.797C509.409 591.797 502.299 600.845 502.282 612.53C502.265 624.215 502.535 646 502.535 646C502.535 646 510.136 636.655 516.541 640.54C517.631 641.201 518.014 642.553 519.155 643.236C519.725 643.576 521.04 643.245 521.615 643.586C530.441 648.826 539.645 653.944 540.505 653.047C541.262 652.257 544.157 649.403 542.776 647.774C541.395 646.145 544.242 642.28 544.242 642.28L558.238 590.856C558.997 588.15 559.147 585.31 558.679 582.54C558.211 579.769 557.135 577.136 555.53 574.83C554.552 573.453 553.527 572.429 552.575 572.26C550.438 571.804 551.575 567.014 550.03 565.467Z" fill="#F9A826"/>
<path d="M366.47 729.772L363.566 722.467L390.988 707.541L395.273 718.322L366.47 729.772Z" fill="#FFB6B6"/>
<path d="M375.876 713.801L379.317 726.925C402.622 720.863 426.638 706.621 450.989 688.512C477.864 696.827 503.356 701.81 526.535 699C530.38 698.494 533.877 696.51 536.285 693.47C538.693 690.429 539.823 686.571 539.435 682.712C539.395 682.337 539.341 681.964 539.273 681.593C537.656 673.038 524.161 665.528 519.799 655.782L491.112 662.612L488.981 668.125L482.521 666.418L477.067 664.976L470.823 663.327L450.355 657.918C448.484 657.445 446.539 657.346 444.63 657.629C442.722 657.911 440.888 658.569 439.235 659.563C437.582 660.558 436.142 661.87 434.998 663.424C433.855 664.977 433.03 666.742 432.572 668.617C432.463 669.037 432.373 669.461 432.301 669.89L403.952 691.952C403.952 691.952 401.423 697.866 399.479 695.433C397.535 693 393.894 699.78 393.894 699.78L375.876 713.801Z" fill="#2F2E41"/>
<path d="M352.764 739.21L350.587 733.734L355.368 730.701L349.203 730.253L343.43 715.73C343.153 715.034 343.106 714.268 343.296 713.543C343.485 712.818 343.901 712.173 344.484 711.702C345.066 711.23 345.784 710.957 346.532 710.923C347.28 710.888 348.02 711.094 348.643 711.509L361.264 719.923L366.49 717.845L370.612 730.333L352.764 739.21Z" fill="#2F2E41"/>
<path d="M563.143 528.751C564.543 529.939 566.207 530.776 567.996 531.19C569.805 531.455 571.924 530.58 572.425 528.821C573.037 526.67 571.095 524.712 569.349 523.314L563.814 518.882C562.801 517.983 561.656 517.243 560.421 516.688C559.8 516.415 559.126 516.285 558.448 516.307C557.77 516.33 557.106 516.505 556.505 516.819C555.91 517.22 555.428 517.768 555.104 518.408C554.781 519.049 554.627 519.762 554.657 520.479C554.736 521.917 555.21 523.305 556.028 524.49C557.055 526.091 558.396 527.468 559.97 528.538C561.544 529.608 563.318 530.348 565.185 530.714" fill="#2F2E41"/>
<path d="M560.685 517.526C560.523 513.514 564.798 510.337 568.804 510.588C572.81 510.84 576.253 513.657 578.525 516.967C580.796 520.275 582.161 524.106 583.95 527.697C585.739 531.288 588.122 534.804 591.677 536.665C595.231 538.523 600.18 538.192 602.636 535.019C603.4 536.178 603.881 537.5 604.038 538.879C604.196 540.257 604.027 541.654 603.544 542.955C602.538 545.56 600.662 547.736 598.235 549.115C597.268 549.688 596.236 550.142 595.161 550.467C594.717 549.27 594.093 548.148 593.31 547.14C593.664 548.333 593.799 549.581 593.709 550.823C592.051 551.14 590.346 551.114 588.699 550.744C587.082 550.382 585.571 549.648 584.287 548.601C583.003 547.554 581.98 546.222 581.301 544.71C579.798 541.154 580.564 537.098 580.242 533.251C579.924 529.403 577.605 525.01 573.744 524.948C570.804 524.899 571.193 525.142 569.33 527.417" fill="#2F2E41"/>
<path d="M533.984 538.606C533.984 540.889 534.434 543.151 535.308 545.26C536.182 547.37 537.463 549.287 539.078 550.902C540.692 552.517 542.609 553.798 544.719 554.672C546.829 555.545 549.09 555.995 551.374 555.995C560.978 555.995 570.101 544.866 570.101 535.262C570.101 525.658 560.978 521.216 551.374 521.216C546.762 521.216 542.339 523.048 539.078 526.31C535.816 529.571 533.984 533.994 533.984 538.606Z" fill="#2F2E41"/>
<path d="M546.13 559.782C555.293 559.782 562.721 552.354 562.721 543.191C562.721 534.029 555.293 526.601 546.13 526.601C536.968 526.601 529.54 534.029 529.54 543.191C529.54 552.354 536.968 559.782 546.13 559.782Z" fill="#FFB6B6"/>
<path d="M525.29 540.612C530.201 541.953 535.159 543.359 537.074 540.612C537.446 538.791 538.151 537.054 539.154 535.489C539.343 537.242 539.754 538.963 540.378 540.612C542.086 540.866 543.809 540.996 545.535 541C546.238 542.211 549.45 544.214 549.564 545.665C549.811 545.51 550.071 545.373 550.339 545.257C550.499 545.167 550.675 545.112 550.858 545.096C551.04 545.08 551.223 545.103 551.396 545.164C551.515 545.236 551.616 545.334 551.692 545.451C551.767 545.568 551.815 545.701 551.831 545.839C551.864 546.118 551.851 546.401 551.791 546.675C551.721 547.632 551.435 548.56 550.955 549.391C550.765 549.677 550.518 549.92 550.229 550.105C549.94 550.291 549.615 550.414 549.276 550.467C548.58 554.38 547.043 559.67 547.043 559.67C563.763 560.339 568.763 547.996 568.763 537.268L566.757 533.255H560.068V524.56H541.341C537.084 524.561 533.002 526.253 529.992 529.263C526.982 532.273 525.291 536.355 525.29 540.612Z" fill="#2F2E41"/>
<path d="M492.408 623.708L517.727 625.621L520.735 637.749C520.735 637.749 491.178 631.892 490.291 631.548C489.258 632.221 488.045 632.564 486.812 632.532C485.58 632.5 484.386 632.095 483.389 631.37C482.392 630.645 481.638 629.634 481.228 628.471C480.818 627.309 480.77 626.049 481.092 624.859C481.413 623.668 482.088 622.604 483.028 621.806C483.968 621.007 485.127 620.513 486.354 620.389C487.58 620.264 488.816 620.515 489.897 621.107C490.978 621.7 491.854 622.607 492.408 623.708Z" fill="#FFB6B6"/>
<path d="M550.702 581.417C552.133 576.036 536.782 606.097 543.473 633.247C542.959 635.119 542.059 636.863 540.832 638.368C539.605 639.872 538.077 641.104 536.347 641.984C534.617 642.864 532.722 643.374 530.783 643.481C528.845 643.587 526.905 643.288 525.089 642.602L506.052 635.069L511.787 623.377L520.796 623.808L529.969 599.475L538.663 586.768L550.702 581.417Z" fill="#F9A826"/>
<path d="M488.626 651.022L465.426 631.429C464.633 630.758 464.139 629.8 464.051 628.765C463.964 627.729 464.291 626.702 464.961 625.907L469.231 620.851C469.902 620.058 470.86 619.564 471.895 619.476C472.931 619.389 473.958 619.716 474.753 620.385L497.953 639.978C498.746 640.649 499.24 641.607 499.328 642.643C499.415 643.678 499.088 644.706 498.419 645.5L494.149 650.556C493.477 651.349 492.519 651.844 491.484 651.931C490.448 652.018 489.421 651.691 488.626 651.022Z" fill="#3F3D56"/>
<path d="M466.644 626.315C466.283 626.743 466.107 627.297 466.154 627.855C466.201 628.413 466.467 628.929 466.895 629.291L490.095 648.883C490.523 649.244 491.077 649.42 491.635 649.373C492.193 649.326 492.709 649.06 493.071 648.632L497.341 643.576C497.702 643.148 497.878 642.594 497.831 642.036C497.784 641.478 497.517 640.962 497.09 640.6L473.89 621.008C473.462 620.647 472.908 620.471 472.35 620.518C471.792 620.565 471.276 620.831 470.914 621.259L466.644 626.315Z" fill="white"/>
<path d="M480.264 633.932C480.183 634.044 480.078 634.137 479.955 634.201C479.833 634.266 479.697 634.301 479.559 634.304L475.913 634.388C475.796 634.392 475.679 634.372 475.569 634.33C475.459 634.288 475.359 634.224 475.273 634.143C475.188 634.062 475.12 633.965 475.072 633.858C475.024 633.75 474.999 633.635 474.996 633.517C474.993 633.399 475.014 633.283 475.056 633.173C475.099 633.063 475.163 632.963 475.244 632.879C475.326 632.794 475.423 632.726 475.531 632.679C475.639 632.632 475.755 632.607 475.872 632.605L478.257 632.55L475.909 626.353C475.867 626.243 475.848 626.127 475.851 626.01C475.855 625.893 475.881 625.777 475.929 625.671C475.977 625.564 476.046 625.467 476.131 625.387C476.217 625.307 476.317 625.244 476.427 625.203C476.536 625.161 476.653 625.142 476.77 625.145C476.887 625.149 477.002 625.175 477.109 625.223C477.216 625.272 477.312 625.34 477.392 625.426C477.473 625.511 477.535 625.611 477.577 625.721L480.372 633.097C480.423 633.23 480.441 633.374 480.424 633.515C480.408 633.657 480.358 633.793 480.278 633.911L480.264 633.932Z" fill="#F9A826"/>
</svg>
